<?xml version="1.0" encoding="UTF-8"?>
<!DOCTYPE svg PUBLIC "-//W3C//DTD SVG 1.1//EN" "http://www.w3.org/Graphics/SVG/1.1/DTD/svg11.dtd">
<svg xmlns="http://www.w3.org/2000/svg" version="1.1" width="1024px" height="1024px" style="shape-rendering:geometricPrecision; text-rendering:geometricPrecision; image-rendering:optimizeQuality; fill-rule:evenodd; clip-rule:evenodd" xmlns:xlink="http://www.w3.org/1999/xlink">
<g><path style="opacity:1" fill="#f6de1d" d="M -0.5,-0.5 C 340.833,-0.5 682.167,-0.5 1023.5,-0.5C 1023.5,340.833 1023.5,682.167 1023.5,1023.5C 682.167,1023.5 340.833,1023.5 -0.5,1023.5C -0.5,682.167 -0.5,340.833 -0.5,-0.5 Z"/></g>
<g><path style="opacity:1" fill="#000000" d="M 761.5,464.5 C 791.496,462.1 820.496,466.267 848.5,477C 877.672,491.172 900.005,512.505 915.5,541C 891.003,557.083 866.336,572.916 841.5,588.5C 835.771,579.929 829.438,571.762 822.5,564C 803.828,548.932 782.828,544.598 759.5,551C 739.809,559.36 730.976,574.193 733,595.5C 735.238,609.805 742.405,620.972 754.5,629C 778.169,641.672 802.502,653.005 827.5,663C 856.62,675.049 882.953,691.382 906.5,712C 936.924,744.476 949.091,782.976 943,827.5C 935.891,876.6 909.391,910.433 863.5,929C 810.634,947.996 757.634,948.329 704.5,930C 662.273,913.601 630.607,885.435 609.5,845.5C 635.181,830.003 661.014,814.669 687,799.5C 696.342,815.176 708.175,828.676 722.5,840C 751.851,858.816 783.184,862.816 816.5,852C 846.551,837.991 854.717,815.824 841,785.5C 831.192,774.035 819.358,765.201 805.5,759C 775.83,746.442 746.497,733.108 717.5,719C 656.584,686.338 630.751,635.505 640,566.5C 650.939,519.128 679.439,487.628 725.5,472C 737.418,468.519 749.418,466.019 761.5,464.5 Z"/></g>
<g><path style="opacity:1" fill="#000000" d="M 556.5,809.5 C 553.077,887.582 512.744,931.749 435.5,942C 400.582,946.124 367.249,940.79 335.5,926C 305.755,909.755 283.755,886.255 269.5,855.5C 295,839.582 320.667,823.916 346.5,808.5C 352.568,816.957 358.401,825.624 364,834.5C 382.306,856.455 405.14,862.955 432.5,854C 447.555,847.926 456.389,836.759 459,820.5C 459.829,815.863 460.329,811.196 460.5,806.5C 461.5,694.668 461.833,582.668 461.5,470.5C 493.167,470.5 524.833,470.5 556.5,470.5C 556.5,583.5 556.5,696.5 556.5,809.5 Z"/></g>
<g><path style="opacity:1" fill="#574f0a" d="M 556.5,809.5 C 556.5,696.5 556.5,583.5 556.5,470.5C 524.833,470.5 493.167,470.5 461.5,470.5C 461.833,582.668 461.5,694.668 460.5,806.5C 460.5,694.167 460.5,581.833 460.5,469.5C 492.833,469.5 525.167,469.5 557.5,469.5C 557.833,583.001 557.5,696.335 556.5,809.5 Z"/></g>
</svg>
