<?xml version="1.0" encoding="UTF-8"?>
<!DOCTYPE svg PUBLIC "-//W3C//DTD SVG 1.1//EN" "http://www.w3.org/Graphics/SVG/1.1/DTD/svg11.dtd">
<svg xmlns="http://www.w3.org/2000/svg" version="1.1" width="1200px" height="1200px" style="shape-rendering:geometricPrecision; text-rendering:geometricPrecision; image-rendering:optimizeQuality; fill-rule:evenodd; clip-rule:evenodd" xmlns:xlink="http://www.w3.org/1999/xlink">
<g><path style="opacity:0.998" fill="#000000" d="M 1199.5,297.5 C 1199.5,498.833 1199.5,700.167 1199.5,901.5C 1191.01,941.487 1166.68,965.653 1126.5,974C 775.167,974.667 423.833,974.667 72.5,974C 32.3202,965.653 7.98691,941.487 -0.5,901.5C -0.5,700.167 -0.5,498.833 -0.5,297.5C 7.98302,257.517 32.3164,233.351 72.5,225C 423.833,224.333 775.167,224.333 1126.5,225C 1166.68,233.347 1191.01,257.513 1199.5,297.5 Z M 149.5,374.5 C 199.504,374.167 249.504,374.5 299.5,375.5C 336.833,425.328 374.333,474.994 412,524.5C 449.667,474.994 487.167,425.328 524.5,375.5C 574.496,374.5 624.496,374.167 674.5,374.5C 674.5,524.167 674.5,673.833 674.5,823.5C 624.497,823.5 574.497,823.833 524.5,824.5C 524.667,749.499 524.5,674.499 524,599.5C 486.425,646.985 449.092,694.652 412,742.5C 374.908,694.652 337.575,646.985 300,599.5C 299.5,674.499 299.333,749.499 299.5,824.5C 249.5,824.5 199.5,824.5 149.5,824.5C 149.5,674.5 149.5,524.5 149.5,374.5 Z M 824.5,374.5 C 874.5,374.5 924.5,374.5 974.5,374.5C 974.5,449.5 974.5,524.5 974.5,599.5C 1011.51,599.167 1048.51,599.5 1085.5,600.5C 1023.19,687.306 960.694,773.973 898,860.5C 836.694,773.694 775.194,687.028 713.5,600.5C 750.494,599.5 787.494,599.167 824.5,599.5C 824.5,524.5 824.5,449.5 824.5,374.5 Z"/></g>
</svg>
