<?xml version="1.0" encoding="UTF-8"?>
<!DOCTYPE svg PUBLIC "-//W3C//DTD SVG 1.1//EN" "http://www.w3.org/Graphics/SVG/1.1/DTD/svg11.dtd">
<svg xmlns="http://www.w3.org/2000/svg" version="1.1" width="1024px" height="1024px" style="shape-rendering:geometricPrecision; text-rendering:geometricPrecision; image-rendering:optimizeQuality; fill-rule:evenodd; clip-rule:evenodd" xmlns:xlink="http://www.w3.org/1999/xlink">
<g><path style="opacity:0.996" fill="#3776aa" d="M 469.5,-0.5 C 495.833,-0.5 522.167,-0.5 548.5,-0.5C 565.727,0.883455 583.061,2.71679 600.5,5C 606.386,5.75373 612.053,6.9204 617.5,8.5C 543.806,82.8604 469.806,156.86 395.5,230.5C 351.833,230.5 308.167,230.5 264.5,230.5C 264.5,216.833 264.5,203.167 264.5,189.5C 265.552,189.649 266.552,189.483 267.5,189C 288.062,168.605 308.395,148.105 328.5,127.5C 331.819,149.652 344.485,162.819 366.5,167C 389.033,168.651 404.867,159.151 414,138.5C 420.826,112.657 412.326,93.8235 388.5,82C 385.28,80.6476 381.947,79.8143 378.5,79.5C 403.81,52.523 429.81,26.1897 456.5,0.5C 461.032,0.818222 465.366,0.484888 469.5,-0.5 Z"/></g>
<g><path style="opacity:0.992" fill="#3779b0" d="M 456.5,0.5 C 429.81,26.1897 403.81,52.523 378.5,79.5C 352.946,78.2054 336.446,89.8721 329,114.5C 328.501,118.821 328.334,123.154 328.5,127.5C 308.395,148.105 288.062,168.605 267.5,189C 266.552,189.483 265.552,189.649 264.5,189.5C 264.333,159.831 264.5,130.165 265,100.5C 268.76,81.8104 277.594,65.9771 291.5,53C 310.647,36.9222 332.314,25.2555 356.5,18C 389.188,8.49685 422.521,2.66352 456.5,0.5 Z"/></g>
<g><path style="opacity:0.998" fill="#3773a5" d="M 617.5,8.5 C 653.096,13.6385 685.763,26.1385 715.5,46C 722.296,50.6289 728.296,56.1289 733.5,62.5C 511.368,284.466 289.034,506.299 66.5,728C 65.9056,728.464 65.2389,728.631 64.5,728.5C 48.5619,712.66 36.0619,694.327 27,673.5C 18.509,653.861 12.3423,633.528 8.5,612.5C 9.22158,612.918 9.72158,613.584 10,614.5C 127.341,498.326 244.174,381.659 360.5,264.5C 411.5,264.5 462.5,264.5 513.5,264.5C 513.5,253.167 513.5,241.833 513.5,230.5C 474.167,230.5 434.833,230.5 395.5,230.5C 469.806,156.86 543.806,82.8604 617.5,8.5 Z"/></g>
<g><path style="opacity:0.998" fill="#3670a1" d="M 733.5,62.5 C 741.553,70.265 747.886,79.265 752.5,89.5C 616.473,226.194 480.14,362.527 343.5,498.5C 285.073,510.092 249.573,545.092 237,603.5C 235.013,613.077 233.68,622.743 233,632.5C 232.5,676.165 232.333,719.832 232.5,763.5C 196.798,763.96 161.132,763.46 125.5,762C 101.645,756.919 81.3117,745.752 64.5,728.5C 65.2389,728.631 65.9056,728.464 66.5,728C 289.034,506.299 511.368,284.466 733.5,62.5 Z"/></g>
<g><path style="opacity:0.999" fill="#366f9e" d="M 752.5,89.5 C 757.959,99.7246 761.126,110.725 762,122.5C 761.626,149.819 761.459,177.152 761.5,204.5C 664.14,301.527 566.806,398.527 469.5,495.5C 437.498,495.333 405.498,495.5 373.5,496C 363.442,496.281 353.442,497.114 343.5,498.5C 480.14,362.527 616.473,226.194 752.5,89.5 Z"/></g>
<g><path style="opacity:0.999" fill="#366c99" d="M 761.5,204.5 C 761.969,265.525 761.469,326.525 760,387.5C 753.14,432.005 729.307,463.505 688.5,482C 674.688,487.826 660.354,491.826 645.5,494C 586.862,495.472 528.195,495.972 469.5,495.5C 566.806,398.527 664.14,301.527 761.5,204.5 Z"/></g>
<g><path style="opacity:0.993" fill="#ffd646" d="M 950.5,282.5 C 950.631,283.239 950.464,283.906 950,284.5C 887.667,349.5 825.333,414.5 763,479.5C 762.601,479.272 762.435,478.938 762.5,478.5C 782.024,451.431 792.524,421.098 794,387.5C 794.5,344.168 794.667,300.835 794.5,257.5C 829.198,257.048 863.865,257.548 898.5,259C 917.814,262.83 935.147,270.664 950.5,282.5 Z"/></g>
<g><path style="opacity:0.997" fill="#3777ad" d="M 285.5,264.5 C 191.139,359.861 96.1391,454.528 0.5,548.5C 0.67158,547.508 0.338246,546.842 -0.5,546.5C -0.5,522.833 -0.5,499.167 -0.5,475.5C 1.48908,434.733 10.3224,395.4 26,357.5C 39.4844,326.664 60.3177,302.164 88.5,284C 106.455,273.459 125.789,267.126 146.5,265C 192.832,264.5 239.165,264.333 285.5,264.5 Z"/></g>
<g><path style="opacity:0.998" fill="#3775a9" d="M 285.5,264.5 C 310.5,264.5 335.5,264.5 360.5,264.5C 244.174,381.659 127.341,498.326 10,614.5C 9.72158,613.584 9.22158,612.918 8.5,612.5C 3.87479,591.452 1.20812,570.119 0.5,548.5C 96.1391,454.528 191.139,359.861 285.5,264.5 Z"/></g>
<g><path style="opacity:0.999" fill="#ffd445" d="M 950.5,282.5 C 953.06,284.273 955.393,286.273 957.5,288.5C 952.9,294.275 948.066,299.941 943,305.5C 737.302,519.53 531.969,733.863 327,948.5C 319.911,956.094 312.411,963.094 304.5,969.5C 302.46,967.823 300.46,966.156 298.5,964.5C 446.432,809.066 594.932,654.066 744,499.5C 744.483,498.552 744.649,497.552 744.5,496.5C 750.833,490.833 756.833,484.833 762.5,478.5C 762.435,478.938 762.601,479.272 763,479.5C 825.333,414.5 887.667,349.5 950,284.5C 950.464,283.906 950.631,283.239 950.5,282.5 Z"/></g>
<g><path style="opacity:0.999" fill="#ffd141" d="M 957.5,288.5 C 974.056,303.599 987.223,321.266 997,341.5C 1010.48,371.12 1018.98,402.12 1022.5,434.5C 919.496,541.504 816.83,648.837 714.5,756.5C 647.5,756.5 580.5,756.5 513.5,756.5C 513.5,768.167 513.5,779.833 513.5,791.5C 568.833,791.5 624.167,791.5 679.5,791.5C 611.235,863.934 542.402,935.934 473,1007.5C 469.263,1011.73 465.763,1016.06 462.5,1020.5C 431.231,1018.34 400.564,1012.84 370.5,1004C 345.978,996.91 323.978,985.41 304.5,969.5C 312.411,963.094 319.911,956.094 327,948.5C 531.969,733.863 737.302,519.53 943,305.5C 948.066,299.941 952.9,294.275 957.5,288.5 Z"/></g>
<g><path style="opacity:0.999" fill="#ffcc3b" d="M 1022.5,434.5 C 1022.83,434.5 1023.17,434.5 1023.5,434.5C 1023.5,484.5 1023.5,534.5 1023.5,584.5C 1018.75,618.583 1008.25,650.916 992,681.5C 966.109,726.378 927.276,751.544 875.5,757C 821.845,756.569 768.179,756.402 714.5,756.5C 816.83,648.837 919.496,541.504 1022.5,434.5 Z"/></g>
<g><path style="opacity:0.998" fill="#ffd647" d="M 744.5,496.5 C 744.649,497.552 744.483,498.552 744,499.5C 594.932,654.066 446.432,809.066 298.5,964.5C 277.517,945.195 266.184,921.195 264.5,892.5C 265.436,865.844 265.769,839.177 265.5,812.5C 357.048,717.767 448.381,622.767 539.5,527.5C 550.659,526.833 561.659,526.167 572.5,525.5C 603.835,525.667 635.168,525.5 666.5,525C 695.506,523.28 721.506,513.78 744.5,496.5 Z"/></g>
<g><path style="opacity:0.994" fill="#ffdc4d" d="M 537.5,525.5 C 525.34,526.331 513.007,526.831 500.5,527C 422.3,608.699 343.966,690.199 265.5,771.5C 265.333,727.832 265.5,684.165 266,640.5C 272.62,584.877 302.787,549.044 356.5,533C 368.927,529.373 381.594,527.04 394.5,526C 442.166,525.5 489.832,525.333 537.5,525.5 Z"/></g>
<g><path style="opacity:0.998" fill="#ffd94b" d="M 537.5,525.5 C 549.167,525.5 560.833,525.5 572.5,525.5C 561.659,526.167 550.659,526.833 539.5,527.5C 448.381,622.767 357.048,717.767 265.5,812.5C 265.5,798.833 265.5,785.167 265.5,771.5C 343.966,690.199 422.3,608.699 500.5,527C 513.007,526.831 525.34,526.331 537.5,525.5 Z"/></g>
<g><path style="opacity:0.992" fill="#ffcb3b" d="M 679.5,791.5 C 707.167,791.5 734.833,791.5 762.5,791.5C 762.667,834.501 762.5,877.501 762,920.5C 757.483,943.683 745.65,962.183 726.5,976C 696.429,995.919 663.429,1008.59 627.5,1014C 572.754,1022.55 517.754,1024.72 462.5,1020.5C 465.763,1016.06 469.263,1011.73 473,1007.5C 542.402,935.934 611.235,863.934 679.5,791.5 Z M 645.5,854.5 C 672.93,852.281 690.43,864.281 698,890.5C 700.313,917.506 688.48,934.673 662.5,942C 635.494,944.313 618.327,932.48 611,906.5C 608.781,879.913 620.281,862.579 645.5,854.5 Z"/></g>
</svg>
