<?xml version="1.0" standalone="no"?>
<!DOCTYPE svg PUBLIC "-//W3C//DTD SVG 20010904//EN"
 "http://www.w3.org/TR/2001/REC-SVG-20010904/DTD/svg10.dtd">
<svg version="1.0" xmlns="http://www.w3.org/2000/svg"
 width="1200.000000pt" height="1453.000000pt" viewBox="0 0 1200.000000 1453.000000"
 preserveAspectRatio="xMidYMid meet">
<metadata>
Created by potrace 1.16, written by Peter Selinger 2001-2019
</metadata>
<g transform="translate(0.000000,1453.000000) scale(0.100000,-0.100000)"
fill="#000000" stroke="none">
<path d="M3809 12353 c-1196 -1198 -2211 -2218 -2255 -2268 -860 -968 -1373
-2120 -1509 -3390 -108 -1011 48 -2051 450 -2996 552 -1297 1573 -2383 2835
-3014 1009 -505 2091 -713 3210 -619 1248 105 2415 597 3365 1417 686 593
1249 1356 1603 2172 415 956 573 2022 456 3070 -144 1289 -704 2492 -1614
3463 -57 62 -109 112 -115 112 -5 0 -252 -242 -547 -537 l-537 -538 65 -70
c357 -383 603 -737 809 -1160 643 -1323 595 -2871 -129 -4150 -372 -656 -957
-1252 -1621 -1650 -887 -533 -1921 -742 -2944 -594 -776 112 -1526 438 -2140
932 -222 177 -473 426 -670 662 -981 1177 -1293 2787 -820 4234 184 560 443
1026 838 1501 57 69 764 785 1783 1805 l1688 1691 0 1052 c0 840 -3 1052 -13
1052 -7 0 -991 -980 -2188 -2177z"/>
<path d="M8027 12120 c-322 -38 -578 -259 -669 -576 -18 -64 -22 -104 -22
-209 0 -150 15 -217 74 -340 78 -163 195 -281 355 -360 115 -57 184 -75 315
-82 285 -15 544 116 701 355 88 134 123 258 123 432 0 147 -22 239 -84 359
-152 292 -467 459 -793 421z"/>
</g>
</svg>
