<?xml version="1.0" encoding="UTF-8"?>
<!DOCTYPE svg PUBLIC "-//W3C//DTD SVG 1.1//EN" "http://www.w3.org/Graphics/SVG/1.1/DTD/svg11.dtd">
<svg xmlns="http://www.w3.org/2000/svg" version="1.1" width="640px" height="775px" style="shape-rendering:geometricPrecision; text-rendering:geometricPrecision; image-rendering:optimizeQuality; fill-rule:evenodd; clip-rule:evenodd" xmlns:xlink="http://www.w3.org/1999/xlink">
<g><path style="opacity:0.994" fill="#ee4c2c" d="M 317.5,-0.5 C 318.5,-0.5 319.5,-0.5 320.5,-0.5C 320.667,37.1681 320.5,74.8348 320,112.5C 257.306,174.861 194.972,237.527 133,300.5C 79.5511,369.514 65.8844,445.847 92,529.5C 121.337,607.504 175.837,658.671 255.5,683C 352.372,704.927 434.205,679.427 501,606.5C 553.467,541.62 569.467,468.62 549,387.5C 537.197,347.202 516.697,312.202 487.5,282.5C 506.5,262.833 525.833,243.5 545.5,224.5C 600.832,280.843 632.166,348.51 639.5,427.5C 639.5,443.833 639.5,460.167 639.5,476.5C 626.732,592.041 570.065,678.541 469.5,736C 382.562,779.328 293.562,783.995 202.5,750C 100.4,706.562 35.5665,631.062 8,523.5C 3.34548,502.255 0.512145,480.921 -0.5,459.5C -0.5,453.833 -0.5,448.167 -0.5,442.5C 3.30381,359.549 33.4705,287.883 90,227.5C 133.368,183.965 176.868,140.632 220.5,97.5C 248.249,71.2523 275.583,44.419 302.5,17C 302.272,16.6012 301.938,16.4346 301.5,16.5C 306.833,10.8333 312.167,5.16667 317.5,-0.5 Z"/></g>
<g><path style="opacity:0.627" fill="#f35f24" d="M 301.5,16.5 C 301.938,16.4346 302.272,16.6012 302.5,17C 275.583,44.419 248.249,71.2523 220.5,97.5C 247.167,70.1667 274.167,43.1667 301.5,16.5 Z"/></g>
<g><path style="opacity:0.99" fill="#ee4b2b" d="M 426.5,127.5 C 450.755,126.533 466.588,137.533 474,160.5C 476.594,190.99 462.761,208.323 432.5,212.5C 402.554,208.606 388.72,191.606 391,161.5C 395.907,142.756 407.74,131.423 426.5,127.5 Z"/></g>
</svg>
