<?xml version="1.0" standalone="no"?>
<!DOCTYPE svg PUBLIC "-//W3C//DTD SVG 20010904//EN"
 "http://www.w3.org/TR/2001/REC-SVG-20010904/DTD/svg10.dtd">
<svg version="1.0" xmlns="http://www.w3.org/2000/svg"
 width="1280.000000pt" height="341.000000pt" viewBox="0 0 1280.000000 341.000000"
 preserveAspectRatio="xMidYMid meet">

<g transform="translate(0.000000,341.000000) scale(0.100000,-0.100000)"
fill="#000000" stroke="none">
<path d="M8490 3374 c-14 -2 -59 -9 -100 -15 -41 -6 -118 -25 -170 -41 -483
-154 -813 -598 -916 -1234 -21 -134 -30 -509 -15 -656 90 -871 602 -1418 1327
-1418 346 0 633 117 870 354 308 307 466 759 466 1326 0 215 -10 324 -47 508
-127 626 -511 1055 -1037 1157 -80 16 -327 28 -378 19z m282 -498 c309 -59
529 -281 631 -636 45 -156 59 -263 64 -487 7 -297 -13 -454 -86 -669 -98 -291
-274 -475 -531 -556 -66 -20 -95 -23 -235 -23 -181 0 -249 15 -379 83 -80 42
-209 159 -260 236 -140 211 -204 451 -213 801 -6 212 4 339 37 502 72 347 247
595 498 705 121 52 329 72 474 44z"/>
<path d="M11445 3369 c-242 -33 -448 -126 -603 -274 -172 -162 -249 -341 -259
-595 -14 -350 95 -574 355 -737 117 -73 277 -139 592 -243 162 -54 333 -114
379 -134 177 -75 285 -158 338 -257 26 -51 28 -61 28 -174 0 -101 -4 -129 -23
-177 -81 -202 -296 -297 -647 -285 -122 4 -167 10 -240 31 -180 52 -376 167
-513 299 l-52 51 -86 -84 c-47 -47 -122 -125 -166 -173 l-81 -88 84 -85 c205
-208 451 -343 742 -406 136 -30 478 -32 627 -5 459 84 724 316 816 712 26 111
26 389 0 490 -43 168 -145 322 -285 429 -151 115 -295 180 -709 320 -338 115
-410 144 -510 209 -79 52 -112 86 -144 147 -20 39 -23 59 -23 155 0 100 3 115
28 166 80 165 277 249 552 236 250 -12 427 -84 621 -253 l61 -53 162 169 c95
99 161 176 158 184 -8 19 -182 163 -257 212 -151 97 -306 160 -480 195 -112
23 -361 33 -465 18z"/>
<path d="M290 3326 c-115 -26 -202 -96 -254 -206 -27 -58 -31 -75 -31 -155 0
-77 4 -99 27 -148 55 -118 131 -183 248 -213 138 -35 288 23 372 144 138 201
52 486 -172 565 -65 23 -127 27 -190 13z"/>
<path d="M1550 3326 c-117 -26 -201 -94 -254 -206 -27 -58 -31 -75 -31 -155 0
-77 4 -99 27 -148 55 -118 131 -183 248 -213 180 -46 363 62 422 248 34 111
14 237 -53 334 -75 110 -228 169 -359 140z"/>
<path d="M2819 3330 c-110 -19 -210 -98 -262 -208 -28 -60 -32 -77 -32 -158 0
-84 2 -95 38 -166 56 -115 138 -176 265 -200 118 -22 262 38 337 140 140 188
71 466 -138 562 -69 31 -139 41 -208 30z"/>
<path d="M4290 1695 l0 -1635 230 0 230 0 0 645 0 645 359 0 358 0 313 -645
314 -645 273 0 273 0 -19 37 c-54 107 -621 1285 -621 1291 0 4 39 21 87 37
332 113 547 390 593 765 46 381 -68 720 -310 917 -135 110 -343 190 -552 213
-59 6 -382 10 -813 10 l-715 0 0 -1635z m1559 1152 c186 -56 303 -178 346
-359 19 -79 19 -213 1 -299 -38 -178 -164 -307 -347 -355 -55 -15 -137 -18
-581 -21 l-518 -4 0 531 0 531 523 -4 c444 -3 530 -6 576 -20z"/>
<path d="M260 2051 c-96 -31 -178 -105 -224 -201 -28 -58 -31 -75 -31 -155 0
-77 4 -98 28 -150 38 -81 70 -120 130 -160 234 -155 535 0 554 284 4 61 1 89
-17 141 -24 71 -72 143 -117 176 -71 53 -115 68 -208 71 -49 1 -101 -1 -115
-6z"/>
<path d="M1520 2051 c-96 -31 -178 -105 -224 -201 -27 -57 -31 -76 -31 -150 0
-139 53 -246 158 -315 204 -135 466 -39 538 198 54 174 -24 362 -183 443 -44
23 -68 28 -143 31 -49 1 -101 -1 -115 -6z"/>
<path d="M2780 2051 c-97 -32 -178 -105 -224 -201 -27 -57 -31 -76 -31 -150 0
-180 93 -310 259 -361 140 -44 285 5 379 127 139 181 77 456 -125 560 -44 23
-68 28 -143 31 -49 1 -101 -1 -115 -6z"/>
<path d="M233 769 c-29 -11 -77 -42 -106 -69 -198 -181 -153 -497 88 -616 52
-25 71 -29 145 -29 71 0 95 5 142 27 79 37 142 98 181 177 29 60 32 74 32 161
0 86 -3 101 -32 162 -37 78 -93 137 -165 174 -73 38 -208 44 -285 13z"/>
<path d="M1493 769 c-73 -28 -156 -107 -193 -182 -91 -187 -10 -418 178 -505
47 -22 71 -27 142 -27 77 0 92 3 152 33 78 38 139 101 176 182 22 46 26 70 26
150 1 86 -2 101 -30 160 -37 79 -95 140 -166 176 -73 38 -208 44 -285 13z"/>
<path d="M2752 769 c-75 -29 -162 -113 -196 -188 -86 -193 -3 -416 190 -503
73 -33 199 -32 274 3 283 131 291 535 15 677 -70 36 -206 42 -283 11z"/>
</g>
</svg>
