<?xml version="1.0" encoding="UTF-8"?>
<!DOCTYPE svg PUBLIC "-//W3C//DTD SVG 1.1//EN" "http://www.w3.org/Graphics/SVG/1.1/DTD/svg11.dtd">
<svg xmlns="http://www.w3.org/2000/svg" version="1.1" width="1200px" height="1200px" style="shape-rendering:geometricPrecision; text-rendering:geometricPrecision; image-rendering:optimizeQuality; fill-rule:evenodd; clip-rule:evenodd" xmlns:xlink="http://www.w3.org/1999/xlink">
<g><path style="opacity:1" fill="#3178c6" d="M 101.5,-0.5 C 433.5,-0.5 765.5,-0.5 1097.5,-0.5C 1154.5,10.5 1188.5,44.5 1199.5,101.5C 1199.5,433.5 1199.5,765.5 1199.5,1097.5C 1188.5,1154.5 1154.5,1188.5 1097.5,1199.5C 765.5,1199.5 433.5,1199.5 101.5,1199.5C 44.5,1188.5 10.5,1154.5 -0.5,1097.5C -0.5,765.5 -0.5,433.5 -0.5,101.5C 10.5,44.5 44.5,10.5 101.5,-0.5 Z"/></g>
<g><path style="opacity:1" fill="#fefefe" d="M 1076.5,576.5 C 1076.83,613.004 1076.5,649.337 1075.5,685.5C 1067.22,679.349 1058.22,674.183 1048.5,670C 1018.07,657.48 986.403,650.647 953.5,649.5C 933.079,648.94 913.412,652.44 894.5,660C 867.786,672.258 858.619,692.425 867,720.5C 872.027,729.863 878.86,737.697 887.5,744C 894.996,749.249 902.663,754.249 910.5,759C 931.833,769.443 953.499,779.11 975.5,788C 1001.64,799.561 1025.98,813.894 1048.5,831C 1061.53,842.355 1072.7,855.189 1082,869.5C 1096.2,897.488 1101.53,927.154 1098,958.5C 1095.15,989.072 1084.81,1016.74 1067,1041.5C 1041.92,1066.96 1011.75,1083.46 976.5,1091C 925.409,1100.8 874.075,1102.13 822.5,1095C 794.603,1091.24 768.103,1083.07 743,1070.5C 742.333,1033.17 742.333,995.833 743,958.5C 795.895,999.151 855.395,1014.32 921.5,1004C 934.209,1001.32 945.875,996.323 956.5,989C 975.297,971.34 978.464,951.173 966,928.5C 954.985,914.077 941.485,902.577 925.5,894C 893.228,879.53 861.228,864.53 829.5,849C 748.484,805.331 722.318,739.498 751,651.5C 769.704,613.802 798.871,587.635 838.5,573C 874.457,560.91 911.457,555.41 949.5,556.5C 982.977,555.71 1015.98,559.21 1048.5,567C 1058.11,569.701 1067.44,572.868 1076.5,576.5 Z"/></g>
<g><path style="opacity:1" fill="#fefefe" d="M 276.5,569.5 C 416.167,569.5 555.833,569.5 695.5,569.5C 695.5,601.5 695.5,633.5 695.5,665.5C 645.5,665.5 595.5,665.5 545.5,665.5C 545.5,808.167 545.5,950.833 545.5,1093.5C 505.833,1093.5 466.167,1093.5 426.5,1093.5C 426.5,950.833 426.5,808.167 426.5,665.5C 376.669,664.501 326.669,664.168 276.5,664.5C 276.5,632.833 276.5,601.167 276.5,569.5 Z"/></g>
<g><path style="opacity:1" fill="#87b0dd" d="M 1076.5,576.5 C 1077.83,613.002 1077.83,649.669 1076.5,686.5C 1075.89,686.376 1075.56,686.043 1075.5,685.5C 1076.5,649.337 1076.83,613.004 1076.5,576.5 Z"/></g>
<g><path style="opacity:1" fill="#a3c2e5" d="M 276.5,569.5 C 276.5,601.167 276.5,632.833 276.5,664.5C 326.669,664.168 376.669,664.501 426.5,665.5C 426.167,665.5 425.833,665.5 425.5,665.5C 375.5,665.5 325.5,665.5 275.5,665.5C 275.168,633.329 275.502,601.329 276.5,569.5 Z"/></g>
<g><path style="opacity:1" fill="#8eb5df" d="M 425.5,665.5 C 425.833,665.5 426.167,665.5 426.5,665.5C 426.5,808.167 426.5,950.833 426.5,1093.5C 466.167,1093.5 505.833,1093.5 545.5,1093.5C 505.67,1094.5 465.67,1094.83 425.5,1094.5C 425.5,951.5 425.5,808.5 425.5,665.5 Z"/></g>
<g><path style="opacity:1" fill="#eaf0f9" d="M 738.5,953.5 C 739.833,953.5 741.167,953.5 742.5,953.5C 742.657,954.873 742.49,956.207 742,957.5C 740.373,956.468 739.207,955.134 738.5,953.5 Z"/></g>
</svg>
